<svg width="177" height="88" viewBox="0 0 177 88" fill="none" xmlns="http://www.w3.org/2000/svg">
<rect x="0.5" y="0.5" width="176" height="87" rx="15.5" fill="#08080A"/>
<g clip-path="url(#clip0_302_7718)">
<path d="M28.5 20H148.5V68H28.5V20Z" fill="#F0141E"/>
<path d="M130.049 31.1885V23.8378H109.479L106.093 48.3855L102.747 23.8378H95.3294L96.1584 30.3927C95.3033 28.7127 92.2678 23.8378 85.5838 23.8378C85.5394 23.8349 78.157 23.8378 78.157 23.8378L78.1262 59.618L72.7207 23.8378L63.0046 23.8349L57.4116 60.907L57.4147 23.8378H48.1142L44.7626 44.6621L41.4977 23.8378H32.1958V64.1415H39.5213V44.7149L42.8539 64.1415H46.7477L50.0333 44.7149V64.1415H64.1544L65.0083 57.9423H70.6934L71.5474 64.1415L85.4124 64.1504H85.4225V64.1415H85.4398V51.0605L87.1375 50.8148L90.6562 64.1504H97.8281L97.8252 64.1415H97.8456L93.2285 48.5151C95.5663 46.7921 98.209 42.4241 97.5058 38.2436V38.2421C97.5144 38.2964 101.865 64.1684 101.865 64.1684L110.393 64.142L116.22 27.6132V64.142H130.048V56.8942H123.486V47.6525H130.048V40.2941H123.486V31.1885H130.049ZM65.8711 51.5528L67.884 34.3203L69.9696 51.5528H65.8711ZM87.161 43.5956C86.5985 43.8651 86.0129 44 85.4398 44.0014V31.039C85.4486 31.039 85.4621 31.0376 85.4765 31.0376C86.0477 31.0332 90.3252 31.2089 90.3252 37.4477C90.3252 40.7112 88.8708 42.7695 87.161 43.5956ZM144.806 56.8875V64.1326H131.314V23.832H138.58V56.8875H144.806Z" fill="#F9F9F9"/>
</g>
<rect x="0.5" y="0.5" width="176" height="87" rx="15.5" stroke="#0D0C0F"/>
<defs>
<clipPath id="clip0_302_7718">
<rect width="120" height="48" fill="white" transform="translate(28.5 20)"/>
</clipPath>
</defs>
</svg>
