<svg width="176" height="88" viewBox="0 0 176 88" fill="none" xmlns="http://www.w3.org/2000/svg">
<rect x="0.5" y="0.5" width="175" height="87" rx="15.5" fill="#08080A"/>
<path fill-rule="evenodd" clip-rule="evenodd" d="M36.941 28.9993H57.8796V59.001H36.941V28.9993ZM39.959 55.9807H54.8512V32.0207H39.959V55.9807Z" fill="#FFCD1A"/>
<path fill-rule="evenodd" clip-rule="evenodd" d="M71.788 42.4598H70.4929C68.7916 40.0566 67.1042 37.6685 65.4192 34.9695H65.407V42.4598H63.9753V32.0161H65.2716C66.9729 34.4024 68.6579 36.7737 70.3273 39.4587H70.3569V32.0161H71.7886V42.4598H71.788ZM75.1912 38.3262C75.6067 36.9532 76.025 35.6854 76.3986 34.0735H76.4288C76.846 35.6854 77.2196 36.9538 77.6072 38.3262H75.1912ZM75.8757 32.0161L72.2674 42.4598H73.8188L74.7264 39.6092H77.8762L78.6961 42.4598H80.6966L77.3684 32.0161H75.8757ZM82.3811 42.4598V33.417H79.6351V32.0161H86.915V33.417H84.1713V42.4598H82.3811ZM87.4954 32.0161H89.2734V42.4598H87.4954V32.0161ZM94.7934 41.1449C92.9265 41.1449 92.2705 39.0862 92.2705 37.0868C92.2705 35.163 93.016 33.3275 94.7934 33.3275C96.5685 33.3275 97.3116 35.163 97.3116 37.0868C97.3116 39.0862 96.6568 41.1449 94.7934 41.1449ZM94.7934 42.6364C97.5225 42.6364 99.2227 40.2059 99.2227 37.0863C99.2227 34.163 97.3459 31.8359 94.7934 31.8359C92.2432 31.8359 90.3582 34.163 90.3582 37.0863C90.3588 40.2065 92.0619 42.6364 94.7934 42.6364ZM108.129 42.4598H106.832C105.13 40.0566 103.443 37.6685 101.76 34.9695H101.745V42.4598H100.315V32.0161H101.612C103.311 34.4024 104.997 36.7737 106.665 39.4587H106.696V32.0161H108.13V42.4598H108.129ZM111.53 38.3262C111.949 36.9532 112.365 35.6854 112.74 34.0735H112.77C113.188 35.6854 113.559 36.9538 113.946 38.3262H111.53ZM112.218 32.0161L108.608 42.4598H110.161L111.068 39.6092H114.218L115.038 42.4598H117.036L113.709 32.0161H112.218ZM117.556 32.0161H119.335V41.0565H122.869V42.4598H117.556V32.0161ZM70.6875 51.1952V55.5054C69.7317 55.8802 68.7317 56.1469 67.7201 56.1469C64.6458 56.1469 62.7069 53.7599 62.7069 50.6862C62.7069 47.8356 64.6458 45.3452 67.7788 45.3452C68.7468 45.3452 69.7172 45.7049 70.3145 46.1517L69.7323 47.3899C69.2558 47.0942 68.508 46.8403 67.823 46.8403C65.9148 46.8403 64.6156 48.3475 64.6156 50.7199C64.6156 53.1946 66.1083 54.6553 67.6452 54.6553C68.1205 54.6553 68.5255 54.5984 68.9002 54.4026V51.1952H70.6875ZM77.0907 46.9298H74.1035V49.7926H77.0273V51.1952H74.1035V54.5647H77.6241V55.9691H72.3121V45.5248H77.0907V46.9298ZM82.61 54.6548C80.7431 54.6548 80.086 52.5979 80.086 50.5973C80.086 48.6746 80.832 46.8397 82.61 46.8397C84.3839 46.8397 85.1283 48.6746 85.1283 50.5973C85.1283 52.5979 84.4705 54.6548 82.61 54.6548ZM82.61 56.1469C85.3386 56.1469 87.0382 53.7152 87.0382 50.5967C87.0382 47.6735 85.1596 45.3447 82.61 45.3447C80.0557 45.3447 78.1784 47.6735 78.1784 50.5967C78.1778 53.7158 79.8756 56.1469 82.61 56.1469ZM95.6301 51.1952V55.5054C94.6743 55.8802 93.6772 56.1469 92.6615 56.1469C89.5895 56.1469 87.6488 53.7599 87.6488 50.6862C87.6488 47.8356 89.5895 45.3452 92.7225 45.3452C93.6929 45.3452 94.6609 45.7049 95.2565 46.1517L94.6743 47.3899C94.1966 47.0942 93.4552 46.8403 92.7678 46.8403C90.8556 46.8403 89.5576 48.3475 89.5576 50.7199C89.5576 53.1946 91.0509 54.6553 92.5877 54.6553C93.0665 54.6553 93.4674 54.5984 93.8416 54.4026V51.1952H95.6301ZM99.0652 46.9298H99.8537C100.91 46.9298 101.509 47.5387 101.509 48.6142C101.509 50.0151 100.66 50.6409 99.8084 50.6856C99.6288 50.7036 99.2105 50.7188 99.0652 50.7315V46.9298ZM103.599 55.9691L101.492 51.6444C102.64 51.0343 103.3 49.7926 103.3 48.5393C103.3 46.5085 102.06 45.5248 100.061 45.5248H97.2709V55.9691H99.0652V52.0308H99.87L101.553 55.9691H103.599ZM106.552 51.8361C106.969 50.4613 107.386 49.1947 107.761 47.5834H107.79C108.208 49.1947 108.58 50.4613 108.968 51.8361H106.552ZM107.237 45.5248L103.626 55.9691H105.177L106.088 53.1185H109.238L110.053 55.9691H112.056L108.727 45.5248H107.237ZM115.412 45.5248H112.622V55.9691H114.413V52.0308H115.217C117.351 52.0308 118.651 50.2998 118.651 48.5393C118.651 46.5079 117.411 45.5248 115.412 45.5248ZM115.161 50.6862C114.975 50.7031 114.538 50.717 114.413 50.7292V46.9298H115.217C116.261 46.9298 116.86 47.5387 116.86 48.6142C116.86 50.0151 116.012 50.6415 115.161 50.6862ZM126.944 55.9691H125.154V50.943H121.437V55.9691H119.666V45.5248H121.437V49.5381H125.154V45.5544H126.944V55.9691ZM128.658 45.5248H130.437V55.9691H128.658V45.5248ZM138.49 47.4207C138.056 47.1517 137.343 46.8397 136.654 46.8397C134.831 46.8397 133.508 48.3469 133.508 50.7193C133.508 53.194 134.969 54.6548 136.7 54.6548C137.334 54.6518 137.954 54.4706 138.49 54.1318L138.984 55.431C138.443 55.8035 137.491 56.1469 136.627 56.1469C133.553 56.1469 131.612 53.7599 131.612 50.6862C131.612 47.8356 133.536 45.3452 136.654 45.3452C137.581 45.3452 138.443 45.7357 139.059 46.1517L138.49 47.4207Z" fill="#F9F9F9"/>
<rect x="0.5" y="0.5" width="175" height="87" rx="15.5" stroke="#0D0C0F"/>
</svg>
